# xmcd
#
# Track frame offsets: 
#        150
#        14499
#        29990
#        43616
#        60089
#        73861
#        91590
#        106697
#        122967
#        142687
#        155906
#        171881
#
# Disc length: 2451 seconds
#
# Revision: 0
# Processed by: cddbd v1.5.2PL0 Copyright (c) Steve Scherf et al.
# Submitted via: ExactAudioCopy v0.99pb5
#
DISCID=9d09910c
DTITLE=Various Artist - Line Dance The Hot Billys
DYEAR=1900
DGENRE=
TTITLE0=Cotton Eyed Joe
TTITLE1=Achy Breaky Heart
TTITLE2=T-r-o-u-b-l-e
TTITLE3=Great Balls of Fire
TTITLE4=Watermelon Crawl
TTITLE5=Wild Wild West
TTITLE6=Boot Scootin´ Boogie
TTITLE7=Have Mercy
TTITLE8=Electric Boogie
TTITLE9=Don´t Rock the Juke Box
TTITLE10=I feel Lucky
TTITLE11=Elvira
EXTD=
EXTT0=
EXTT1=
EXTT2=
EXTT3=
EXTT4=
EXTT5=
EXTT6=
EXTT7=
EXTT8=
EXTT9=
EXTT10=
EXTT11=
PLAYORDER=
